# xmcd
#
# Track frame offsets: 
#        150
#        17392
#        40875
#        58922
#        79575
#        94877
#        109835
#        130322
#        147065
#        164965
#        187760
#        207900
#        233232
#
# Disc length: 3835 seconds
#
# Revision: 15
# Processed by: cddbd v1.5.2PL0 Copyright (c) Steve Scherf et al.
# Submitted via: ExactAudioCopyFreeDBPlugin 1.0
#
DISCID=af0ef90d
DTITLE=Various Artist - The Blueprint
DYEAR=2001
DGENRE=Hip-Hop
TTITLE0=Jay Z - The Ruler's Back
TTITLE1=Jay Z - Takeover
TTITLE2=Jay Z - Izzo (H.O.V.A.)
TTITLE3=Jay Z - Girls, Girls, Girls
TTITLE4=Jay Z - Jigga That Nigga
TTITLE5=Jay Z - U Don't Know
TTITLE6=Jay Z - Hola' Hovito
TTITLE7=Jay Z - Heart Of The City (Ain't No Love)
TTITLE8=Jay Z - Never Change
TTITLE9=Jay Z - Song Cry
TTITLE10=Jay Z - All I Need
TTITLE11=Jay-Z - Renagade (Feat. Eminem)
TTITLE12=Jay Z - Blueprint (Momma Loves Me)
EXTD=YEAR: 2001
EXTT0=
EXTT1=
EXTT2=
EXTT3=
EXTT4=
EXTT5=
EXTT6=
EXTT7=
EXTT8=
EXTT9=
EXTT10=
EXTT11=
EXTT12=
PLAYORDER=
